<?xml version="1.0" encoding="iso-8859-1"?>
<!-- Generator: Adobe Illustrator 20.1.0, SVG Export Plug-In . SVG Version: 6.00 Build 0)  -->
<svg xmlns="http://www.w3.org/2000/svg" xmlns:xlink="http://www.w3.org/1999/xlink" version="1.1" id="&#1057;&#1083;&#1086;&#1081;_1" x="0px" y="0px" viewBox="0 0 64 64" style="enable-background:new 0 0 64 64;" xml:space="preserve">
<linearGradient id="SVGID_1__48215" gradientUnits="userSpaceOnUse" x1="32" y1="4.75" x2="32" y2="59.528" spreadMethod="reflect">
	<stop offset="0" style="stop-color:#1A6DFF"/>
	<stop offset="1" style="stop-color:#C822FF"/>
</linearGradient>
<path style="fill:url(#SVGID_1__48215);" d="M49,6H15c-1.654,0-3,1.346-3,3v4v3v39c0,1.654,1.345,3,3,3h34c1.654,0,3-1.346,3-3V16v-3V9  C52,7.346,50.654,6,49,6z M15,8h34c0.552,0,1,0.448,1,1v1.184C50,10.072,49.352,10,49,10H15c-0.352,0-1,0.072-1,0.184V9  C14,8.448,14.448,8,15,8z M49,56h-7v-7c0-0.552,0.448-1,1-1h7v7C50,55.552,49.551,56,49,56z M50,46h-7c-1.654,0-3,1.346-3,3v7H15  c-0.552,0-1-0.448-1-1V16v-3c0-0.552,0.448-1,1-1h34c0.552,0,1,0.448,1,1v3V46z"/>
<linearGradient id="SVGID_2__48215" gradientUnits="userSpaceOnUse" x1="24.7497" y1="4.75" x2="24.7497" y2="59.528" spreadMethod="reflect">
	<stop offset="0" style="stop-color:#1A6DFF"/>
	<stop offset="1" style="stop-color:#C822FF"/>
</linearGradient>
<path style="fill:url(#SVGID_2__48215);" d="M23.001,23.587l-3.294-3.294l-1.414,1.414l3.294,3.294c0.389,0.39,0.9,0.584,1.412,0.584  s1.024-0.194,1.414-0.584l6.794-6.794l-1.414-1.414L23.001,23.587z"/>
<linearGradient id="SVGID_3__48215" gradientUnits="userSpaceOnUse" x1="40" y1="4.75" x2="40" y2="59.528" spreadMethod="reflect">
	<stop offset="0" style="stop-color:#1A6DFF"/>
	<stop offset="1" style="stop-color:#C822FF"/>
</linearGradient>
<rect x="34" y="18" style="fill:url(#SVGID_3__48215);" width="12" height="2"/>
<linearGradient id="SVGID_4__48215" gradientUnits="userSpaceOnUse" x1="40" y1="4.75" x2="40" y2="59.528" spreadMethod="reflect">
	<stop offset="0" style="stop-color:#1A6DFF"/>
	<stop offset="1" style="stop-color:#C822FF"/>
</linearGradient>
<rect x="34" y="22" style="fill:url(#SVGID_4__48215);" width="12" height="2"/>
<linearGradient id="SVGID_5__48215" gradientUnits="userSpaceOnUse" x1="24.7497" y1="4.75" x2="24.7497" y2="59.528" spreadMethod="reflect">
	<stop offset="0" style="stop-color:#1A6DFF"/>
	<stop offset="1" style="stop-color:#C822FF"/>
</linearGradient>
<path style="fill:url(#SVGID_5__48215);" d="M23.001,39.587l-3.294-3.294l-1.414,1.414l3.294,3.294c0.389,0.39,0.9,0.584,1.412,0.584  s1.024-0.194,1.414-0.584l6.794-6.794l-1.414-1.414L23.001,39.587z"/>
<linearGradient id="SVGID_6__48215" gradientUnits="userSpaceOnUse" x1="40" y1="4.75" x2="40" y2="59.528" spreadMethod="reflect">
	<stop offset="0" style="stop-color:#1A6DFF"/>
	<stop offset="1" style="stop-color:#C822FF"/>
</linearGradient>
<rect x="34" y="34" style="fill:url(#SVGID_6__48215);" width="12" height="2"/>
<linearGradient id="SVGID_7__48215" gradientUnits="userSpaceOnUse" x1="40" y1="4.75" x2="40" y2="59.528" spreadMethod="reflect">
	<stop offset="0" style="stop-color:#1A6DFF"/>
	<stop offset="1" style="stop-color:#C822FF"/>
</linearGradient>
<rect x="34" y="38" style="fill:url(#SVGID_7__48215);" width="12" height="2"/>
<linearGradient id="SVGID_8__48215" gradientUnits="userSpaceOnUse" x1="46" y1="49.75" x2="46" y2="54.6843" spreadMethod="reflect">
	<stop offset="0" style="stop-color:#6DC7FF"/>
	<stop offset="1" style="stop-color:#E6ABFF"/>
</linearGradient>
<path style="fill:url(#SVGID_8__48215);" d="M48,53c0,0.552-0.448,1-1,1h-2c-0.552,0-1-0.448-1-1v-2c0-0.552,0.448-1,1-1h2  c0.552,0,1,0.448,1,1V53z"/>
</svg>
